<svg width="64" height="64" viewBox="0 0 64 64" fill="none" xmlns="http://www.w3.org/2000/svg">
<g id="Icon/Community">
<path id="Vector" d="M18.6666 48V45.3333C18.6666 41.7971 20.0714 38.4057 22.5719 35.9052C25.0724 33.4048 28.4637 32 32 32M32 32C35.5362 32 38.9276 33.4048 41.428 35.9052C43.9285 38.4057 45.3333 41.7971 45.3333 45.3333V48M32 32C34.1217 32 36.1565 31.1571 37.6568 29.6569C39.1571 28.1566 40 26.1217 40 24C40 21.8783 39.1571 19.8434 37.6568 18.3431C36.1565 16.8429 34.1217 16 32 16C29.8782 16 27.8434 16.8429 26.3431 18.3431C24.8428 19.8434 24 21.8783 24 24C24 26.1217 24.8428 28.1566 26.3431 29.6569C27.8434 31.1571 29.8782 32 32 32ZM2.66663 48V45.3333C2.66663 43.2116 3.50948 41.1768 5.00977 39.6765C6.51006 38.1762 8.54489 37.3333 10.6666 37.3333M10.6666 37.3333C12.0811 37.3333 13.4377 36.7714 14.4379 35.7712C15.4381 34.771 16 33.4145 16 32C16 30.5855 15.4381 29.229 14.4379 28.2288C13.4377 27.2286 12.0811 26.6667 10.6666 26.6667C9.25214 26.6667 7.89558 27.2286 6.89539 28.2288C5.8952 29.229 5.33329 30.5855 5.33329 32C5.33329 33.4145 5.8952 34.771 6.89539 35.7712C7.89558 36.7714 9.25214 37.3333 10.6666 37.3333ZM61.3333 48V45.3333C61.3333 43.2116 60.4904 41.1768 58.9901 39.6765C57.4899 38.1762 55.455 37.3333 53.3333 37.3333M53.3333 37.3333C54.7478 37.3333 56.1043 36.7714 57.1045 35.7712C58.1047 34.771 58.6666 33.4145 58.6666 32C58.6666 30.5855 58.1047 29.229 57.1045 28.2288C56.1043 27.2286 54.7478 26.6667 53.3333 26.6667C51.9188 26.6667 50.5622 27.2286 49.5621 28.2288C48.5619 29.229 48 30.5855 48 32C48 33.4145 48.5619 34.771 49.5621 35.7712C50.5622 36.7714 51.9188 37.3333 53.3333 37.3333Z" stroke="#D6B36D" stroke-width="3" stroke-linecap="round" stroke-linejoin="round"/>
</g>
</svg>
