<svg width="60" height="60" viewBox="0 0 60 60" fill="none" xmlns="http://www.w3.org/2000/svg">
<g id="Icon/Search">
<path id="Vector" fill-rule="evenodd" clip-rule="evenodd" d="M35.9625 38.615C32.5924 41.3078 28.3192 42.6079 24.0204 42.2484C19.7217 41.8889 15.7238 39.897 12.8478 36.6818C9.97184 33.4667 8.43613 29.2723 8.55609 24.9602C8.67606 20.6482 10.4426 16.5457 13.4929 13.4954C16.5432 10.4451 20.6456 8.67859 24.9577 8.55863C29.2698 8.43866 33.4641 9.97437 36.6793 12.8503C39.8944 15.7263 41.8863 19.7242 42.2458 24.023C42.6054 28.3217 41.3052 32.5949 38.6125 35.965L51.5025 48.8525C51.6867 49.0242 51.8344 49.2312 51.9369 49.4612C52.0394 49.6912 52.0945 49.9394 52.099 50.1912C52.1034 50.443 52.0571 50.693 51.9628 50.9265C51.8685 51.16 51.7281 51.3721 51.5501 51.5501C51.372 51.7282 51.1599 51.8685 50.9265 51.9628C50.693 52.0571 50.4429 52.1034 50.1912 52.099C49.9394 52.0946 49.6911 52.0394 49.4611 51.937C49.2311 51.8345 49.0241 51.6867 48.8525 51.5025L35.9625 38.615ZM16.15 34.71C14.3151 32.8749 13.0654 30.5371 12.5588 27.9919C12.0522 25.4468 12.3114 22.8086 13.3038 20.4108C14.2961 18.0129 15.977 15.9631 18.134 14.5203C20.291 13.0775 22.8273 12.3065 25.4224 12.3047C28.0175 12.303 30.5548 13.0706 32.7138 14.5105C34.8727 15.9504 36.5564 17.9979 37.552 20.3944C38.5475 22.7909 38.8103 25.4288 38.3072 27.9746C37.804 30.5204 36.5574 32.86 34.725 34.6975L34.7125 34.71L34.7 34.72C32.2377 37.1766 28.901 38.5553 25.4229 38.5535C21.9448 38.5516 18.6096 37.1692 16.15 34.71Z" fill="#D6B36D"/>
</g>
</svg>
