<svg width="183" height="93" viewBox="0 0 183 93" fill="none" xmlns="http://www.w3.org/2000/svg">
<g id="Group 6">
<g id="Ellipse 5">
<mask id="path-1-outside-1_60_1569" maskUnits="userSpaceOnUse" x="0" y="0" width="183" height="99" fill="black">
<rect fill="white" width="183" height="99"/>
<path d="M176.737 93C176.737 69.9262 167.743 47.7974 151.733 31.4817C135.723 15.166 114.009 6 91.3684 6C68.7273 6 47.0135 15.166 31.0038 31.4817C14.9941 47.7974 6 69.9262 6 93L91.3684 93H176.737Z"/>
</mask>
<path d="M176.737 93C176.737 69.9262 167.743 47.7974 151.733 31.4817C135.723 15.166 114.009 6 91.3684 6C68.7273 6 47.0135 15.166 31.0038 31.4817C14.9941 47.7974 6 69.9262 6 93L91.3684 93H176.737Z" stroke="#D6B36D" stroke-width="12" mask="url(#path-1-outside-1_60_1569)"/>
</g>
<g id="Ellipse 6">
<mask id="path-2-outside-2_60_1569" maskUnits="userSpaceOnUse" x="14.6589" y="15.616" width="154" height="83" fill="black">
<rect fill="white" x="14.6589" y="15.616" width="154" height="83"/>
<path d="M163.078 92.7259C163.078 73.6011 155.523 55.2597 142.075 41.7365C128.626 28.2132 110.387 20.616 91.3684 20.616C72.3499 20.616 54.1103 28.2132 40.6621 41.7365C27.214 55.2597 19.6589 73.6011 19.6589 92.7259L91.3684 92.7259H163.078Z"/>
</mask>
<path d="M163.078 92.7259C163.078 73.6011 155.523 55.2597 142.075 41.7365C128.626 28.2132 110.387 20.616 91.3684 20.616C72.3499 20.616 54.1103 28.2132 40.6621 41.7365C27.214 55.2597 19.6589 73.6011 19.6589 92.7259L91.3684 92.7259H163.078Z" stroke="#D6B36D" stroke-width="10" mask="url(#path-2-outside-2_60_1569)"/>
</g>
<g id="Ellipse 7">
<mask id="path-3-outside-3_60_1569" maskUnits="userSpaceOnUse" x="28.3179" y="28.8401" width="127" height="70" fill="black">
<rect fill="white" x="28.3179" y="28.8401" width="127" height="70"/>
<path d="M149.419 93.0001C149.419 77.3099 143.303 62.2623 132.416 51.1677C121.53 40.073 106.764 33.8401 91.3684 33.8401C75.9724 33.8401 61.2071 40.073 50.3205 51.1676C39.4339 62.2623 33.3179 77.3099 33.3179 93.0001L91.3684 93.0001H149.419Z"/>
</mask>
<path d="M149.419 93.0001C149.419 77.3099 143.303 62.2623 132.416 51.1677C121.53 40.073 106.764 33.8401 91.3684 33.8401C75.9724 33.8401 61.2071 40.073 50.3205 51.1676C39.4339 62.2623 33.3179 77.3099 33.3179 93.0001L91.3684 93.0001H149.419Z" stroke="#D6B36D" stroke-width="10" mask="url(#path-3-outside-3_60_1569)"/>
</g>
<g id="Ellipse 8">
<mask id="path-4-outside-4_60_1569" maskUnits="userSpaceOnUse" x="41.9768" y="42.76" width="99" height="56" fill="black">
<rect fill="white" x="41.9768" y="42.76" width="99" height="56"/>
<path d="M135.76 93C135.76 81.0016 131.083 69.4946 122.758 61.0105C114.433 52.5264 103.142 47.76 91.3684 47.76C79.595 47.76 68.3038 52.5264 59.9788 61.0105C51.6538 69.4946 46.9768 81.0016 46.9768 93L91.3684 93H135.76Z"/>
</mask>
<path d="M135.76 93C135.76 81.0016 131.083 69.4946 122.758 61.0105C114.433 52.5264 103.142 47.76 91.3684 47.76C79.595 47.76 68.3038 52.5264 59.9788 61.0105C51.6538 69.4946 46.9768 81.0016 46.9768 93L91.3684 93H135.76Z" stroke="#D6B36D" stroke-width="10" mask="url(#path-4-outside-4_60_1569)"/>
</g>
</g>
</svg>
