<svg width="20" height="20" viewBox="0 0 20 20" fill="none" xmlns="http://www.w3.org/2000/svg">
<g id="bookmark-search">
<path id="Vector" fill-rule="evenodd" clip-rule="evenodd" d="M10.6869 3.7478C8.37209 3.7478 6.49561 5.62428 6.49561 7.93905C6.49561 10.2538 8.37209 12.1303 10.6869 12.1303C11.5709 12.1303 12.3911 11.8565 13.0672 11.3892L14.5028 12.8247C14.7982 13.1201 15.2771 13.1201 15.5725 12.8247C15.8679 12.5293 15.8679 12.0504 15.5725 11.755L14.137 10.3194C14.6043 9.64334 14.8781 8.82307 14.8781 7.93905C14.8781 5.62428 13.0016 3.7478 10.6869 3.7478ZM8.00846 7.93905C8.00846 6.45981 9.20762 5.26065 10.6869 5.26065C12.1661 5.26065 13.3653 6.45981 13.3653 7.93905C13.3653 9.41829 12.1661 10.6174 10.6869 10.6174C9.20762 10.6174 8.00846 9.41829 8.00846 7.93905Z" fill="#27364B"/>
<path id="Vector_2" fill-rule="evenodd" clip-rule="evenodd" d="M11.8879 1H10.8597C9.39606 0.999984 8.22081 0.999972 7.29743 1.12412C6.34058 1.25276 5.54178 1.52706 4.90832 2.16052C4.27485 2.79398 4.00056 3.59278 3.87192 4.54963C3.74777 5.47302 3.74778 6.64826 3.7478 8.11198V9.14016C3.74778 10.6039 3.74777 11.7791 3.87192 12.7025C4.00056 13.6594 4.27485 14.4582 4.90832 15.0916C5.54178 15.7251 6.34058 15.9994 7.29743 16.128C8.22081 16.2522 9.39608 16.2522 10.8597 16.2521H11.888C13.3517 16.2522 14.5269 16.2522 15.4503 16.128C16.4071 15.9994 17.2059 15.7251 17.8394 15.0916C18.4728 14.4582 18.7471 13.6594 18.8758 12.7025C18.9999 11.7791 18.9999 10.6039 18.9999 9.14017V8.11198C18.9999 6.64826 18.9999 5.47302 18.8758 4.54963C18.7471 3.59278 18.4728 2.79398 17.8394 2.16052C17.2059 1.52706 16.4071 1.25276 15.4503 1.12412C14.5269 0.999972 13.3516 0.999984 11.8879 1ZM7.49901 2.62348C8.30988 2.51446 9.38323 2.51285 10.9159 2.51285H11.8318C13.3645 2.51285 14.4378 2.51446 15.2487 2.62348C16.0378 2.72956 16.4641 2.92473 16.7696 3.23027C17.0752 3.5358 17.2703 3.96214 17.3764 4.75122C17.4854 5.56208 17.4871 6.63543 17.4871 8.1681V9.08405C17.4871 10.6167 17.4854 11.6901 17.3764 12.5009C17.2703 13.29 17.0752 13.7163 16.7696 14.0219C16.4641 14.3274 16.0378 14.5226 15.2487 14.6287C14.4378 14.7377 13.3645 14.7393 11.8318 14.7393H10.9159C9.38323 14.7393 8.30988 14.7377 7.49901 14.6287C6.70994 14.5226 6.2836 14.3274 5.97806 14.0219C5.67253 13.7163 5.47736 13.29 5.37127 12.5009C5.26226 11.6901 5.26065 10.6167 5.26065 9.08405V8.1681C5.26065 6.63543 5.26226 5.56208 5.37127 4.75122C5.47736 3.96214 5.67253 3.5358 5.97806 3.23027C6.2836 2.92473 6.70994 2.72956 7.49901 2.62348Z" fill="#27364B"/>
<path id="Vector_3" d="M1.75642 3.7478C1.33866 3.7478 1 4.08646 1 4.50422V7.31055C0.99999 9.8518 0.999983 11.8363 1.20795 13.3831C1.42044 14.9636 1.8624 16.1999 2.83121 17.1687C3.80002 18.1375 5.03635 18.5795 6.61677 18.7919C8.16365 18.9999 10.1482 18.9999 12.6895 18.9999H15.4957C15.9135 18.9999 16.2521 18.6612 16.2521 18.2435C16.2521 17.8257 15.9135 17.4871 15.4957 17.4871H12.7479C10.1357 17.4871 8.25279 17.4854 6.81836 17.2926C5.40569 17.1027 4.54183 16.7398 3.90096 16.0989C3.26009 15.4581 2.89724 14.5942 2.70731 13.1815C2.51446 11.7471 2.51285 9.86419 2.51285 7.25208V4.50422C2.51285 4.08646 2.17419 3.7478 1.75642 3.7478Z" fill="#27364B"/>
</g>
</svg>
