<svg width="15" height="15" viewBox="0 0 15 15" fill="none" xmlns="http://www.w3.org/2000/svg">
<path id="Vector" fill-rule="evenodd" clip-rule="evenodd" d="M7.5 0.5C3.66948 0.5 0.5 3.5394 0.5 7.36872C0.5 8.91152 1.01875 10.3336 1.88872 11.4762C2.02903 11.6606 2.07404 11.8106 2.06691 11.9172C2.0312 12.4504 1.85281 12.973 1.40186 13.4418C1.24626 13.6035 1.19431 13.8431 1.26616 14.0579C1.33813 14.273 1.52306 14.4285 1.74429 14.4531C3.1608 14.6111 4.41063 14.3437 5.15569 14.0407C5.33348 13.9684 5.5035 13.9554 5.64041 13.9924C6.23333 14.1523 6.85702 14.2374 7.5 14.2374C11.3306 14.2374 14.5 11.198 14.5 7.36872C14.5 3.5394 11.3306 0.5 7.5 0.5ZM1.6414 7.36872C1.6414 4.26714 4.22921 1.68845 7.5 1.68845C10.7708 1.68845 13.3586 4.26714 13.3586 7.36872C13.3586 10.4703 10.7708 13.049 7.5 13.049C6.95409 13.049 6.42658 12.9767 5.92668 12.8419C5.51179 12.73 5.09359 12.7901 4.74036 12.9337C4.32605 13.1022 3.66759 13.2709 2.88102 13.3053C3.0787 12.877 3.17647 12.4342 3.20555 11.9999C3.2403 11.481 3.01551 11.0431 2.78318 10.738C2.0633 9.79244 1.6414 8.6274 1.6414 7.36872Z" fill="#333333"/>
</svg>
