<svg width="21" height="21" viewBox="0 0 21 21" fill="none" xmlns="http://www.w3.org/2000/svg">
<g id="x">
<path id="Vector" d="M5.55024 14.3891C5.25734 14.682 5.25734 15.1568 5.55024 15.4497C5.84313 15.7426 6.318 15.7426 6.6109 15.4497L10.5 11.5606L14.3891 15.4497C14.682 15.7426 15.1569 15.7426 15.4498 15.4497C15.7427 15.1568 15.7427 14.682 15.4498 14.3891L11.5607 10.5L15.4497 6.6109C15.7426 6.318 15.7426 5.84313 15.4497 5.55024C15.1568 5.25734 14.682 5.25734 14.3891 5.55024L10.5 9.4393L6.61095 5.55024C6.31805 5.25734 5.84318 5.25734 5.55029 5.55024C5.25739 5.84313 5.25739 6.318 5.55029 6.6109L9.43935 10.5L5.55024 14.3891Z" fill="#ECF0F5"/>
</g>
</svg>
