<svg width="48" height="85" viewBox="0 0 48 85" fill="none" xmlns="http://www.w3.org/2000/svg">
<g id="Group 4">
<path id="Vector 42" d="M3.22131 60.2832V66.9695V47.2564M3.22131 27.5432V47.2564M3.22131 47.2564C3.22131 47.2564 10.0615 47.2564 14.4443 47.2564M14.4443 47.2564C16.5486 42.991 18.3022 33.6532 18.3022 26.3904M14.4443 47.2564C12.34 51.5218 14.4443 53.1357 14.4443 57.747M14.4443 78.4977C14.4443 78.4977 14.4443 69.0021 14.4443 57.747M14.4443 57.747C18.3022 57.747 28.473 57.747 28.473 57.747V33.6532M28.473 9.55933V16.7068M28.473 75.0392V33.6532M28.473 33.6532H41.0989M28.473 33.6532V16.7068M41.0989 33.6532V81.495M41.0989 33.6532C41.0989 33.6532 49.1654 21.318 41.0989 16.7068C33.0324 12.0955 28.473 16.7068 28.473 16.7068" stroke="#EF6767" stroke-width="6" stroke-linecap="round" stroke-linejoin="round"/>
<g id="Ellipse 41">
<mask id="path-2-inside-1_65_360" fill="white">
<ellipse cx="28.0158" cy="2.83047" rx="3.05" ry="2.61905"/>
</mask>
<ellipse cx="28.0158" cy="2.83047" rx="3.05" ry="2.61905" fill="#EF6767"/>
<path d="M25.0658 2.83047C25.0658 1.57299 25.6741 0.636648 26.2637 0.130394C26.8407 -0.365079 27.4788 -0.550478 28.0158 -0.550478V11.4495C32.1239 11.4495 37.0658 8.41567 37.0658 2.83047H25.0658ZM28.0158 -0.550478C28.5528 -0.550478 29.191 -0.365079 29.768 0.130394C30.3575 0.636648 30.9658 1.57299 30.9658 2.83047H18.9658C18.9658 8.41567 23.9078 11.4495 28.0158 11.4495V-0.550478ZM30.9658 2.83047C30.9658 4.08796 30.3575 5.0243 29.768 5.53055C29.191 6.02603 28.5528 6.21143 28.0158 6.21143V-5.78857C23.9078 -5.78857 18.9658 -2.75472 18.9658 2.83047H30.9658ZM28.0158 6.21143C27.4788 6.21143 26.8407 6.02603 26.2637 5.53055C25.6741 5.0243 25.0658 4.08796 25.0658 2.83047H37.0658C37.0658 -2.75472 32.1239 -5.78857 28.0158 -5.78857V6.21143Z" fill="#EF6767" mask="url(#path-2-inside-1_65_360)"/>
</g>
</g>
</svg>
