<svg width="20" height="20" viewBox="0 0 20 20" fill="none" xmlns="http://www.w3.org/2000/svg">
<path d="M6.6769 8.09125C6.29135 8.09125 5.98438 8.41806 5.98438 8.81416C5.98438 9.21026 6.29135 9.53708 6.6769 9.53708H13.3229C13.7084 9.53708 14.0154 9.21026 14.0154 8.81416C14.0154 8.41806 13.7084 8.09125 13.3229 8.09125H6.6769Z" fill="black"/>
<path d="M6.6769 10.705C6.29135 10.705 5.98438 11.0318 5.98438 11.4279C5.98438 11.824 6.29135 12.1508 6.6769 12.1508H10.8306C11.2162 12.1508 11.5232 11.824 11.5232 11.4279C11.5232 11.0318 11.2162 10.705 10.8306 10.705H6.6769Z" fill="black"/>
<path fill-rule="evenodd" clip-rule="evenodd" d="M10 1C5.07416 1 1 4.90829 1 9.83036C1 11.8136 1.6668 13.6416 2.78523 15.1106C2.97017 15.3536 3.03476 15.558 3.02455 15.7105C2.97781 16.4084 2.74389 17.0942 2.15277 17.7086C1.96358 17.9053 1.89999 18.1973 1.98765 18.4593C2.07541 18.7216 2.30033 18.9099 2.56786 18.9397C4.3903 19.1429 5.99773 18.7987 6.95393 18.4098C7.19079 18.3135 7.42063 18.2948 7.60887 18.3456C8.37121 18.5512 9.17316 18.6607 10 18.6607C14.9258 18.6607 19 14.7524 19 9.83036C19 4.90829 14.9258 1 10 1ZM2.38504 9.83036C2.38504 5.79698 5.74988 2.44583 10 2.44583C14.2501 2.44583 17.615 5.79698 17.615 9.83036C17.615 13.8637 14.2501 17.2149 10 17.2149C9.29064 17.2149 8.6051 17.121 7.95538 16.9457C7.43067 16.8042 6.90045 16.8799 6.4511 17.0626C5.89782 17.2876 5.01349 17.5119 3.95949 17.5489C4.23343 16.9807 4.36744 16.3905 4.40622 15.8113C4.45012 15.1559 4.1662 14.6007 3.86954 14.211C2.93367 12.9818 2.38504 11.467 2.38504 9.83036Z" fill="black"/>
</svg>
