<svg width="15" height="14" viewBox="0 0 15 14" fill="none" xmlns="http://www.w3.org/2000/svg">
<path d="M1.39453 7.80076L6.68848 12.7431C6.9082 12.9482 7.19824 13.0625 7.5 13.0625C7.80176 13.0625 8.0918 12.9482 8.31152 12.7431L13.6055 7.80076C14.4961 6.97165 15 5.80857 15 4.59275V4.42283C15 2.37497 13.5205 0.62888 11.502 0.291966C10.166 0.0693097 8.80664 0.505833 7.85156 1.46091L7.5 1.81247L7.14844 1.46091C6.19336 0.505833 4.83398 0.0693097 3.49805 0.291966C1.47949 0.62888 0 2.37497 0 4.42283V4.59275C0 5.80857 0.503906 6.97165 1.39453 7.80076Z" fill="#DD0000"/>
</svg>
