<svg width="20" height="20" viewBox="0 0 20 20" fill="none" xmlns="http://www.w3.org/2000/svg">
<path d="M8.09823 4.59387C7.68047 4.59387 7.3418 4.93253 7.3418 5.35029C7.3418 5.76805 7.68047 6.10671 8.09823 6.10671H14.5099C14.9277 6.10671 15.2663 5.76805 15.2663 5.35029C15.2663 4.93253 14.9277 4.59387 14.5099 4.59387H8.09823Z" fill="black"/>
<path d="M8.09823 7.34174C7.68047 7.34174 7.3418 7.68041 7.3418 8.09817C7.3418 8.51593 7.68047 8.85459 8.09823 8.85459H14.5099C14.9277 8.85459 15.2663 8.51593 15.2663 8.09817C15.2663 7.68041 14.9277 7.34174 14.5099 7.34174H8.09823Z" fill="black"/>
<path d="M8.09823 10.0896C7.68047 10.0896 7.3418 10.4282 7.3418 10.846C7.3418 11.2638 7.68047 11.6024 8.09823 11.6024H11.7621C12.1798 11.6024 12.5185 11.2638 12.5185 10.846C12.5185 10.4282 12.1798 10.0896 11.7621 10.0896H8.09823Z" fill="black"/>
<path fill-rule="evenodd" clip-rule="evenodd" d="M11.8179 0.930054H10.7897C9.32599 0.930038 8.15075 0.930025 7.22736 1.05417C6.27051 1.18282 5.47172 1.45711 4.83825 2.09057C4.20479 2.72404 3.93049 3.52284 3.80185 4.47969C3.6777 5.40308 3.67772 6.57832 3.67773 8.04204V9.07021C3.67772 10.5339 3.6777 11.7092 3.80185 12.6326C3.93049 13.5894 4.20479 14.3882 4.83825 15.0217C5.47172 15.6551 6.27051 15.9294 7.22736 16.0581C8.15076 16.1822 9.326 16.1822 10.7897 16.1822H11.8178C13.2816 16.1822 14.4568 16.1822 15.3802 16.0581C16.3371 15.9294 17.1359 15.6551 17.7693 15.0217C18.4028 14.3882 18.6771 13.5894 18.8057 12.6326C18.9299 11.7092 18.9299 10.5339 18.9299 9.07015V8.0421C18.9299 6.57835 18.9299 5.40309 18.8057 4.47969C18.6771 3.52284 18.4028 2.72404 17.7693 2.09057C17.1359 1.45711 16.3371 1.18282 15.3802 1.05417C14.4568 0.930025 13.2816 0.930038 11.8179 0.930054ZM7.42895 2.55353C8.23981 2.44451 9.31317 2.4429 10.8458 2.4429H11.7618C13.2944 2.4429 14.3678 2.44451 15.1786 2.55353C15.9677 2.65962 16.3941 2.85479 16.6996 3.16032C17.0051 3.46585 17.2003 3.89219 17.3064 4.68127C17.4154 5.49214 17.417 6.56549 17.417 8.09815V9.0141C17.417 10.5468 17.4154 11.6201 17.3064 12.431C17.2003 13.2201 17.0051 13.6464 16.6996 13.9519C16.3941 14.2575 15.9677 14.4526 15.1786 14.5587C14.3678 14.6677 13.2944 14.6693 11.7618 14.6693H10.8458C9.31316 14.6693 8.23981 14.6677 7.42895 14.5587C6.63987 14.4526 6.21353 14.2575 5.908 13.9519C5.60246 13.6464 5.4073 13.2201 5.30121 12.431C5.19219 11.6201 5.19058 10.5468 5.19058 9.0141V8.09815C5.19058 6.56549 5.19219 5.49214 5.30121 4.68127C5.4073 3.89219 5.60246 3.46585 5.908 3.16032C6.21353 2.85479 6.63987 2.65962 7.42895 2.55353Z" fill="black"/>
<path d="M1.6866 3.67792C1.26884 3.67792 0.930176 4.01659 0.930176 4.43435V7.24068C0.930166 9.78192 0.930158 11.7664 1.13813 13.3133C1.35061 14.8937 1.79258 16.13 2.76138 17.0988C3.73019 18.0676 4.96652 18.5096 6.54694 18.7221C8.09381 18.9301 10.0783 18.9301 12.6195 18.9301H15.4259C15.8436 18.9301 16.1823 18.5914 16.1823 18.1736C16.1823 17.7559 15.8436 17.4172 15.4259 17.4172H12.678C10.0659 17.4172 8.18297 17.4156 6.74853 17.2227C5.33587 17.0328 4.472 16.67 3.83113 16.0291C3.19026 15.3882 2.82741 14.5244 2.63748 13.1117C2.44463 11.6773 2.44302 9.79432 2.44302 7.18221V4.43435C2.44302 4.01659 2.10436 3.67792 1.6866 3.67792Z" fill="black"/>
</svg>
